<?xml version="1.0" encoding="utf-8"?>
<!-- Generator: Adobe Illustrator 23.0.1, SVG Export Plug-In . SVG Version: 6.00 Build 0)  -->
<svg version="1.1" id="Layer_1" xmlns="http://www.w3.org/2000/svg" xmlns:xlink="http://www.w3.org/1999/xlink" x="0px" y="0px"
	 width="132px" height="39.64px" viewBox="0 0 132 39.64" style="enable-background:new 0 0 132 39.64;" xml:space="preserve">
<style type="text/css">
	.st0{fill:#EE3135;}
</style>
<path class="st0" d="M122.08,14.82c-0.56-1.48-1.35-2.74-2.37-3.78c-0.08-0.08-0.17-0.16-0.25-0.24c-1.81,1.83-3.18,3.49-2.94,6.42
	c0.01,0.26,0.03,0.53,0.07,0.81c0.07,0.58,0.09,1.16,0.09,1.75c0,0.91-0.09,1.79-0.27,2.66c-0.17,0.86-0.48,1.64-0.9,2.32
	c-0.43,0.68-0.99,1.24-1.72,1.65c-0.72,0.41-1.6,0.61-2.66,0.61c-1.06,0-1.94-0.2-2.64-0.61c-0.71-0.41-1.27-0.97-1.69-1.65
	c-0.42-0.69-0.72-1.46-0.9-2.32c-0.18-0.86-0.27-1.74-0.27-2.66c0-0.9,0.09-1.8,0.27-2.67c0.17-0.87,0.47-1.65,0.9-2.32
	c0.43-0.67,0.99-1.22,1.69-1.65c0.71-0.43,1.59-0.64,2.64-0.64c0.32,0,0.56,0,0.86,0.02c1.62,0.12,3.86,0.17,6.1-2.81
	c-0.65-0.44-1.3-0.77-2.1-1.09c-1.44-0.57-3.07-0.86-4.85-0.86c-1.79,0-3.4,0.29-4.84,0.86c-1.44,0.57-2.66,1.38-3.69,2.41
	c-1.03,1.04-1.82,2.3-2.37,3.78c-0.56,1.48-0.84,3.12-0.84,4.94c0,1.82,0.28,3.45,0.84,4.92c0.55,1.47,1.35,2.72,2.37,3.76
	c1.02,1.04,2.25,1.84,3.69,2.39c1.44,0.56,3.05,0.83,4.84,0.83c1.79,0,3.41-0.27,4.85-0.83c1.45-0.56,2.69-1.35,3.72-2.39
	c1.02-1.04,1.81-2.29,2.37-3.76c0.55-1.47,0.83-3.1,0.83-4.92C122.91,17.95,122.63,16.3,122.08,14.82 M14.12,20.54
	c-0.4,0.13-0.82,0.24-1.28,0.33c-0.45,0.09-0.93,0.17-1.42,0.22c-0.5,0.06-0.99,0.13-1.49,0.22c-0.47,0.08-0.93,0.2-1.38,0.35
	C8.09,21.8,7.69,22,7.36,22.25c-0.34,0.25-0.61,0.56-0.81,0.94c-0.2,0.38-0.31,0.86-0.31,1.45c0,0.56,0.1,1.02,0.31,1.41
	c0.2,0.38,0.48,0.68,0.84,0.9c0.35,0.22,0.76,0.38,1.23,0.47c0.47,0.09,0.95,0.13,1.45,0.13c1.23,0,2.18-0.2,2.85-0.62
	c0.67-0.41,1.17-0.9,1.49-1.47c0.32-0.57,0.52-1.15,0.59-1.73c0.07-0.59,0.11-1.06,0.11-1.4v-2.33
	C14.84,20.22,14.51,20.41,14.12,20.54 M1.77,11.72c0.65-0.96,1.47-1.74,2.46-2.33c1-0.58,2.12-1,3.36-1.25
	c1.24-0.25,2.5-0.37,3.76-0.37c1.14,0,2.3,0.08,3.47,0.24c1.17,0.16,2.24,0.48,3.21,0.95c0.97,0.47,1.76,1.12,2.38,1.95
	c0.61,0.83,0.92,1.94,0.92,3.31v11.82c0,1.02,0,5.05,0,5.05s-0.85,0-2.81,0c-1.74,0-3-1.42-3.13-2.84
	c-0.85,1.16-2.11,2.01-3.51,2.66c-1.28,0.59-2.75,0.75-4.15,0.75c-1.09,0-2.1-0.13-3.04-0.39c-0.94-0.27-1.76-0.67-2.46-1.24
	c-0.71-0.55-1.26-1.26-1.65-2.11C0.2,27.08,0,26.07,0,24.9c0-1.29,0.23-2.36,0.68-3.2c0.45-0.84,1.04-1.51,1.76-2
	c0.72-0.5,1.54-0.87,2.46-1.12c0.92-0.25,1.85-0.45,2.79-0.59c0.94-0.15,1.86-0.26,2.77-0.35c0.91-0.09,1.71-0.22,2.41-0.4
	c0.7-0.17,1.26-0.43,1.67-0.77c0.41-0.34,0.6-0.83,0.57-1.48c0-0.67-0.11-1.21-0.33-1.6c-0.22-0.4-0.52-0.71-0.88-0.93
	c-0.37-0.22-0.79-0.37-1.27-0.44c-0.49-0.07-1.01-0.11-1.56-0.11c-1.24,0-2.44,0.29-3.16,0.8c-1.23,0.87-1.25,2.66-3.77,2.66H0.68
	C0.76,13.9,1.13,12.69,1.77,11.72 M68.13,0h-2.46v5.64h6.23V3.78C71.9,1.95,70.45,0,68.13,0 M90.67,21.82
	c-0.22,0.74-0.55,1.41-0.99,1.99c-0.44,0.59-0.99,1.06-1.67,1.41c-0.68,0.34-1.46,0.52-2.33,0.52c-0.97,0-1.77-0.19-2.42-0.61
	c-0.64-0.41-1.16-0.93-1.56-1.58c-0.39-0.64-0.67-1.35-0.84-2.16c-0.16-0.8-0.24-1.62-0.24-2.43c0-0.85,0.09-1.66,0.28-2.43
	c0.19-0.78,0.5-1.47,0.92-2.07c0.43-0.6,0.96-1.07,1.58-1.42c0.63-0.36,1.39-0.53,2.26-0.53c1.03,0,1.88,0.19,2.55,0.57
	c0.67,0.38,1.22,0.89,1.63,1.53c0.41,0.65,0.7,1.38,0.87,2.21c0.17,0.83,0.27,1.72,0.27,2.65C91,20.29,90.89,21.07,90.67,21.82
	 M91,11.44h-0.08c-0.76-1.33-1.71-2.27-2.84-2.83c-1.13-0.56-2.44-0.84-3.93-0.84c-1.58,0-2.98,0.31-4.2,0.92
	c-1.22,0.62-2.23,1.44-3.05,2.48c-0.83,1.04-1.45,2.23-1.87,3.59c-0.43,1.36-0.64,2.77-0.64,4.23c0,1.55,0.18,3.03,0.55,4.41
	c0.37,1.39,0.95,2.6,1.74,3.64c0.79,1.04,1.8,1.86,3.04,2.45c1.23,0.6,2.69,0.9,4.4,0.9c1.38,0,2.69-0.28,3.94-0.85
	c1.24-0.57,2.2-1.45,2.88-2.64H91v3c0.03,1.62-0.26,2.92-1.07,3.98c-0.39,0.52-1,0.89-1.62,1.15c-0.81,0.32-1.58,0.46-2.23,0.47
	c-2.68,0.05-3.38-0.59-4.01-1.08c-0.96-0.75-0.74-2.07-3.19-2.07h-3.72c0.08,1.29,0.45,2.39,1.08,3.31
	c0.62,0.92,1.41,1.68,2.37,2.27c0.95,0.58,2.01,1.01,3.16,1.3c1.15,0.27,2.29,0.42,3.4,0.42c2.61,0,4.68-0.36,6.24-1.06
	c1.56-0.7,2.74-1.56,3.56-2.57c0.82-1,1.36-2.09,1.61-3.26c0.25-1.17,0.37-2.21,0.37-3.11V8.42h-2.76
	C92.11,8.42,91.03,10.18,91,11.44 M65.67,12.24v18.83h2.45c2.08,0,3.78-1.69,3.78-3.78V8.38h-2.35
	C67.5,8.38,65.67,10.07,65.67,12.24 M59.47,8.12c-0.74,0.23-1.42,0.56-2.07,0.98c-0.64,0.42-1.21,0.94-1.7,1.54
	c-0.5,0.6-0.89,1.25-1.19,1.95h-0.08V8.38h-2.09c-2.16,0-3.85,1.69-3.85,3.78v18.92h2.65c2.1,0,3.59-1.16,3.59-3.86v-6.37
	c0-1.02,0.1-1.97,0.31-2.85c0.2-0.88,0.55-1.65,1.03-2.3c0.49-0.66,1.12-1.18,1.91-1.55c0.79-0.39,1.75-0.58,2.89-0.58
	c0.38,0,0.78,0.02,1.19,0.07c0.41,0.04,0.77,0.1,1.06,0.15V7.99c-0.5-0.15-0.96-0.22-1.36-0.22C60.96,7.77,60.2,7.89,59.47,8.12
	 M39.32,12.16v8.13c0,2.31-0.38,3.98-1.14,4.99c-0.75,1.01-1.98,1.52-3.68,1.52c-1.49,0-2.52-0.46-3.11-1.39
	c-0.59-0.92-0.87-2.32-0.87-4.2V8.37h-2.46c-2.09,0-3.77,1.69-3.77,3.78v10.2c0,1.41,0.12,2.69,0.37,3.85
	c0.25,1.16,0.68,2.14,1.3,2.95c0.6,0.8,1.45,1.43,2.51,1.87c1.06,0.43,2.43,0.65,4.1,0.65c1.32,0,2.6-0.29,3.86-0.88
	c1.25-0.58,2.28-1.54,3.07-2.86h0.13c0,1.76,1.43,3.16,3.16,3.16h2.78V8.37h-2.47C41.01,8.37,39.32,10.07,39.32,12.16"/>
<path class="st0" d="M127.59,6.72H128c0.48,0,0.87-0.16,0.87-0.55c0-0.34-0.25-0.57-0.8-0.57c-0.23,0-0.39,0.02-0.48,0.05V6.72z
	 M127.56,8.83h-0.87V5.1c0.34-0.07,0.82-0.14,1.44-0.14c0.71,0,1.03,0.11,1.3,0.3c0.21,0.16,0.37,0.46,0.37,0.8
	c0,0.43-0.32,0.75-0.78,0.89V7c0.37,0.11,0.57,0.41,0.69,0.91c0.11,0.57,0.18,0.8,0.27,0.91h-0.94c-0.11-0.14-0.18-0.46-0.3-0.89
	c-0.07-0.41-0.3-0.59-0.78-0.59h-0.41V8.83z M128.13,3.89c-1.65,0-2.88,1.35-2.88,3c0,1.67,1.24,3,2.93,3
	c1.65,0.02,2.86-1.33,2.86-3c0-1.65-1.21-3-2.88-3H128.13z M128.18,3.13c2.15,0,3.82,1.67,3.82,3.75c0,2.13-1.67,3.77-3.84,3.77
	c-2.15,0-3.87-1.65-3.87-3.77c0-2.08,1.72-3.75,3.87-3.75H128.18z"/>
</svg>
